<svg xmlns="http://www.w3.org/2000/svg" width="29.477" height="23.635" viewBox="0 0 29.477 23.635">
  <path id="Caminho_2505" data-name="Caminho 2505" d="M2487.331,465.773c1.423,1.327-5.558-4.544-5.558-4.544V453.4s-4.475.212-4.543,2.215,3.245,5.035,2.123,4.459-5.505-3.648-4.428-7.22,7.887-5.357,7.978-6.492a4.6,4.6,0,0,0-1.334-3.822c-.858-.772,3.093,2.092,5.764,3.64.919.532.788.182,1.881.182s1.008.4,1.972-.182c.039-.023,6.521-4.823,5.369-3.64a4.137,4.137,0,0,0-1.244,3.822c.3,1.166,7.152,3.466,8.616,7.038s-2.738,6.12-3.458,6.674,1.213-2.791.576-4.459-4.217-2.215-4.217-2.215l-.273,7.831s-6.731,5.94-5.369,4.544.832-7.261.832-7.261,1.446-.3,1.828-.96-.017-2.333.616-3-4.533,2.5-4.533,2.5v3.85H2488.5v-3.85s-5.1-2.985-4.537-2.5.076,2.434.375,3,2.077.96,2.077.96S2485.908,464.447,2487.331,465.773Z" transform="translate(-2474.755 -442.351)" fill="#fff"/>
</svg>
