<svg xmlns="http://www.w3.org/2000/svg" width="25.668" height="27.096" viewBox="0 0 25.668 27.096">
  <g id="Grupo_578" data-name="Grupo 578" transform="translate(-40.007 -313)">
    <g id="Grupo_565" data-name="Grupo 565" transform="translate(39.146 313)">
      <path id="Caminho_2493" data-name="Caminho 2493" d="M2493.53,369.713l5-5.775V348.98h-8.6v-1.4h8.6v-3.016h2.088v3.016l8.486.01v1.391h-8.486v14.959l5.105,5.775Z" transform="translate(-2485.754 -344.562)" fill="#fff"/>
    </g>
    <path id="Caminho_2501" data-name="Caminho 2501" d="M2584.287,364.447h12.177v1.291h-12.177Z" transform="translate(-2537.379 -25.642)" fill="#fff"/>
    <path id="Subtração_46" data-name="Subtração 46" d="M5.043,9.258c-2.1,0-3.95-.725-4.041-1.584S4.3-1.359,4.337-1.441L5.806,0c.03.066,2.945,6.552,2.859,7.427-.042.422-.49.877-1.229,1.248A5.6,5.6,0,0,1,5.043,9.258ZM4.853.891h0L2.375,6.526H7.16L4.853.891Z" transform="translate(39.007 317.472)" fill="#fff"/>
    <path id="Subtração_51" data-name="Subtração 51" d="M3.159,11.7h0C3.126,11.616-.091,3.451,0,2.584S1.944,1,4.043,1a5.6,5.6,0,0,1,2.393.582c.739.372,1.188.827,1.229,1.248.086.877-2.83,7.361-2.859,7.427L3.16,11.7ZM1.374,3.731,3.853,9.367,6.16,3.731Z" transform="translate(65.675 327.73) rotate(180)" fill="#fff"/>
  </g>
</svg>
